<svg width="1024" height="1024" viewBox="0 0 1024 1024" fill="none" xmlns="http://www.w3.org/2000/svg">
<circle cx="512" cy="512" r="512" fill="#124D95"/>
<path d="M340.008 77.9032C340.008 79.2772 342.558 87.2465 345.958 95.7653C351.626 110.879 365.511 127.367 379.679 135.886L386.48 140.283L367.494 149.626C325.273 169.962 289.285 209.808 269.733 257.898C266.616 265.318 260.098 279.607 255.564 289.5C250.747 299.393 243.946 314.782 239.979 323.85C233.178 339.239 229.211 348.033 206.542 395.848C192.94 424.977 188.973 435.145 190.957 437.068C194.64 440.641 228.645 431.847 251.03 421.405C288.718 403.817 312.521 379.36 334.624 335.667C343.691 317.53 344.258 316.98 359.843 312.858C368.344 310.385 397.531 302.141 424.168 294.446C451.087 286.752 474.04 280.981 474.89 281.806C476.307 283.454 469.506 299.942 449.671 341.712C445.987 349.956 439.753 362.872 436.352 370.566C432.952 377.986 426.718 391.176 423.034 399.42C419.067 407.665 413.4 419.756 410.566 426.076L405.465 437.893H538.931H672.397L666.73 431.572C642.643 406.291 642.927 377.986 667.863 354.903C681.181 342.537 693.366 335.941 717.169 328.247C750.323 317.805 796.512 315.881 819.181 324.675C837.6 331.819 852.902 351.33 852.902 367.818C852.902 379.36 857.436 375.513 868.203 354.628C893.99 305.164 892.856 261.196 865.37 237.013C854.318 227.395 814.93 208.159 790.278 200.739C787.727 199.915 782.627 193.594 778.943 186.45C771.009 171.061 754.573 156.222 737.571 148.802C730.771 145.779 710.651 141.107 693.366 138.085C643.21 129.291 636.693 128.192 575.202 118.024C543.182 112.528 502.377 105.658 484.525 102.361C466.673 99.3377 444.853 95.7653 436.352 94.3913C427.851 93.0173 413.4 90.5441 404.615 88.8953C395.548 87.5213 381.379 85.0481 373.445 83.3993C365.227 82.0252 354.176 79.8268 349.359 78.178C343.975 76.804 340.008 76.5292 340.008 77.9032ZM600.705 186.175C612.323 188.373 639.81 193.594 661.346 197.442C710.935 206.785 709.801 206.235 703.567 213.105C694.216 223.273 672.964 236.738 661.062 240.036C650.294 243.333 648.027 243.059 635.843 237.013C626.492 232.616 620.541 227.12 617.14 220.25C613.457 213.38 604.672 205.961 589.37 196.068C576.902 188.098 566.701 180.954 566.701 180.404C566.701 179.58 569.535 179.58 573.219 180.404C576.619 181.228 589.087 183.976 600.705 186.175Z" fill="white"/>
<path d="M173.671 471.419C172.255 473.342 167.437 482.96 162.903 492.853C158.086 502.746 149.869 520.058 144.201 531.325L134 551.935L217.026 552.76C262.932 553.034 300.336 553.859 300.336 554.683C300.336 556.057 213.909 746.769 209.092 756.112C206.825 760.234 206.542 763.257 208.525 764.356C209.942 765.456 217.877 774.249 226.378 784.142C245.363 806.676 272 834.431 273.133 833.332C273.7 832.782 276.817 826.736 279.934 819.866C293.536 789.913 326.689 715.991 344.258 676.97C363.527 633.826 369.478 620.636 381.096 595.903C384.496 588.209 389.03 577.767 391.014 572.271C398.098 552.76 395.548 553.584 457.322 553.309C488.209 553.034 513.995 553.584 514.845 554.408C515.979 555.508 472.907 652.512 439.186 725.06C409.149 788.814 359.277 899.833 360.127 900.383C369.194 906.703 402.348 925.39 427.285 938.306L442.02 946L445.987 937.206C451.088 925.665 470.64 883.345 494.726 831.408C498.693 822.889 503.794 811.897 505.777 807.5C508.044 802.829 514.562 788.814 520.512 775.898C526.746 762.982 535.814 742.922 541.198 731.106L550.833 709.946H615.157C650.578 709.946 680.331 710.77 680.898 711.869C681.748 713.243 680.048 719.014 677.214 725.06C665.313 750.067 652.845 776.448 637.26 811.622C627.908 831.958 619.124 851.194 617.707 854.216C605.522 879.223 589.654 917.146 590.504 917.97C594.188 921.818 659.362 884.994 694.5 859.163C717.169 842.675 723.686 836.354 728.504 825.912C731.904 818.767 737.571 806.126 741.539 797.882C755.99 767.379 782.06 709.671 782.06 708.847C782.06 708.022 786.311 698.679 791.694 687.412C797.078 676.42 808.98 650.039 818.331 628.88C827.682 607.72 839.3 582.163 844.117 571.721C848.935 561.553 852.902 552.485 852.902 551.935C852.902 551.111 855.452 545.34 858.286 538.745C868.204 518.135 889.739 470.319 889.739 468.945C889.739 468.396 867.92 468.396 841.284 468.671C801.612 469.22 792.261 470.319 790.278 473.617C786.877 479.388 765.058 526.104 765.058 527.478C765.058 528.028 761.374 536.546 756.557 546.439C752.023 556.332 748.056 564.851 748.056 565.401C748.056 565.95 743.239 576.942 737.005 589.583C731.054 601.949 725.103 615.14 724.253 618.437C722.27 624.758 722.27 624.758 655.678 624.758C619.124 624.758 589.371 624.208 589.371 623.658C589.371 623.109 595.038 610.743 602.122 596.453C609.206 581.889 614.874 569.523 614.874 568.698C614.874 568.149 621.391 554.408 629.042 538.195C636.976 521.982 643.21 508.517 643.21 507.692C643.21 507.143 647.177 498.899 651.711 489.555C656.528 480.212 660.212 471.693 660.212 470.319C660.212 469.22 551.399 468.121 418.217 468.121C228.078 468.121 175.938 468.945 173.671 471.419Z" fill="white"/>
</svg>
